<?xml version="1.0" encoding="UTF-8" standalone="no"?>
<!DOCTYPE svg PUBLIC "-//W3C//DTD SVG 1.1//EN"
 "http://www.w3.org/Graphics/SVG/1.1/DTD/svg11.dtd">
<!-- Generated by graphviz version 2.38.0 (20140413.2041)
 -->
<!-- Title: container Pages: 1 -->
<svg width="376pt" height="687pt"
 viewBox="0.00 0.00 375.70 686.86" xmlns="http://www.w3.org/2000/svg" xmlns:xlink="http://www.w3.org/1999/xlink">
<g id="graph0" class="graph" transform="scale(1 1) rotate(0) translate(4 682.858)">
<title>container</title>
<polygon fill="white" stroke="none" points="-4,4 -4,-682.858 371.698,-682.858 371.698,4 -4,4"/>
<!-- new -->
<g id="node1" class="node"><title>new</title>
<ellipse fill="none" stroke="black" cx="225.698" cy="-648.86" rx="25.9957" ry="25.9957"/>
<ellipse fill="none" stroke="black" cx="225.698" cy="-648.86" rx="29.9954" ry="29.9954"/>
<text text-anchor="middle" x="225.698" y="-645.16" font-family="Times,serif" font-size="14.00">new</text>
</g>
<!-- empty -->
<g id="node3" class="node"><title>empty</title>
<ellipse fill="none" stroke="black" cx="225.698" cy="-548.716" rx="33.2948" ry="33.2948"/>
<text text-anchor="middle" x="225.698" y="-545.016" font-family="Times,serif" font-size="14.00">empty</text>
</g>
<!-- new&#45;&gt;empty -->
<g id="edge1" class="edge"><title>new&#45;&gt;empty</title>
<path fill="none" stroke="black" d="M225.698,-618.68C225.698,-610.395 225.698,-601.199 225.698,-592.294"/>
<polygon fill="black" stroke="black" points="229.198,-592.045 225.698,-582.045 222.198,-592.045 229.198,-592.045"/>
</g>
<!-- free -->
<g id="node2" class="node"><title>free</title>
<ellipse fill="none" stroke="black" cx="28.6978" cy="-149.791" rx="24.8692" ry="24.8692"/>
<ellipse fill="none" stroke="black" cx="28.6978" cy="-149.791" rx="28.897" ry="28.897"/>
<text text-anchor="middle" x="28.6978" y="-146.091" font-family="Times,serif" font-size="14.00">free</text>
</g>
<!-- empty&#45;&gt;free -->
<g id="edge7" class="edge"><title>empty&#45;&gt;free</title>
<path fill="none" stroke="black" d="M192.661,-544.224C153.506,-538.175 89.5663,-521.885 57.6978,-478.569 -6.41221,-391.428 8.45659,-253.851 20.5397,-188.137"/>
<polygon fill="black" stroke="black" points="23.9941,-188.707 22.4425,-178.227 17.1197,-187.387 23.9941,-188.707"/>
</g>
<!-- empty&#45;&gt;empty -->
<g id="edge6" class="edge"><title>empty&#45;&gt;empty</title>
<path fill="none" stroke="black" d="M257.665,-558.091C268.32,-558.091 276.845,-554.966 276.845,-548.716 276.845,-544.614 273.174,-541.858 267.638,-540.448"/>
<polygon fill="black" stroke="black" points="267.99,-536.966 257.665,-539.341 267.217,-543.923 267.99,-536.966"/>
</g>
<!-- insert -->
<g id="node5" class="node"><title>insert</title>
<ellipse fill="none" stroke="black" cx="97.6978" cy="-417.474" rx="31.3957" ry="31.3957"/>
<text text-anchor="middle" x="97.6978" y="-413.774" font-family="Times,serif" font-size="14.00">insert</text>
</g>
<!-- empty&#45;&gt;insert -->
<g id="edge8" class="edge"><title>empty&#45;&gt;insert</title>
<path fill="none" stroke="black" d="M202.226,-524.805C188.569,-511.406 171.069,-494.119 155.698,-478.569 145.869,-468.625 135.216,-457.647 125.755,-447.824"/>
<polygon fill="black" stroke="black" points="128.238,-445.357 118.785,-440.574 123.192,-450.209 128.238,-445.357"/>
</g>
<!-- search_empty -->
<g id="node7" class="node"><title>search_empty</title>
<ellipse fill="none" stroke="black" cx="225.698" cy="-417.474" rx="61.1893" ry="61.1893"/>
<text text-anchor="middle" x="225.698" y="-413.774" font-family="Times,serif" font-size="14.00">search_empty</text>
</g>
<!-- empty&#45;&gt;search_empty -->
<g id="edge9" class="edge"><title>empty&#45;&gt;search_empty</title>
<path fill="none" stroke="black" d="M219.782,-515.768C219.311,-507.336 219.039,-497.895 218.967,-488.301"/>
<polygon fill="black" stroke="black" points="222.467,-488.282 218.964,-478.283 215.467,-488.284 222.467,-488.282"/>
</g>
<!-- not_empty -->
<g id="node4" class="node"><title>not_empty</title>
<ellipse fill="none" stroke="black" cx="106.698" cy="-269.984" rx="49.2915" ry="49.2915"/>
<text text-anchor="middle" x="106.698" y="-266.284" font-family="Times,serif" font-size="14.00">not_empty</text>
</g>
<!-- not_empty&#45;&gt;free -->
<g id="edge3" class="edge"><title>not_empty&#45;&gt;free</title>
<path fill="none" stroke="black" d="M79.8546,-228.309C70.0014,-213.378 58.9978,-196.705 49.7278,-182.658"/>
<polygon fill="black" stroke="black" points="52.6351,-180.709 44.2057,-174.29 46.7926,-184.564 52.6351,-180.709"/>
</g>
<!-- not_empty&#45;&gt;not_empty -->
<g id="edge2" class="edge"><title>not_empty&#45;&gt;not_empty</title>
<path fill="none" stroke="black" d="M154.859,-282.086C165.948,-281.043 174.093,-277.009 174.093,-269.984 174.093,-265.373 170.585,-262.051 165.04,-260.017"/>
<polygon fill="black" stroke="black" points="165.365,-256.509 154.859,-257.882 163.928,-263.36 165.365,-256.509"/>
</g>
<!-- not_empty&#45;&gt;insert -->
<g id="edge4" class="edge"><title>not_empty&#45;&gt;insert</title>
<path fill="none" stroke="black" d="M110.109,-319.285C109.508,-338.016 108.091,-359.195 106.219,-376.99"/>
<polygon fill="black" stroke="black" points="102.73,-376.698 105.068,-387.032 109.684,-377.496 102.73,-376.698"/>
</g>
<!-- search -->
<g id="node6" class="node"><title>search</title>
<ellipse fill="none" stroke="black" cx="108.698" cy="-149.791" rx="33.5952" ry="33.5952"/>
<text text-anchor="middle" x="108.698" y="-146.091" font-family="Times,serif" font-size="14.00">search</text>
</g>
<!-- not_empty&#45;&gt;search -->
<g id="edge5" class="edge"><title>not_empty&#45;&gt;search</title>
<path fill="none" stroke="black" d="M100.867,-220.91C100.845,-211.815 101.049,-202.359 101.464,-193.445"/>
<polygon fill="black" stroke="black" points="104.968,-193.467 102.047,-183.283 97.9797,-193.066 104.968,-193.467"/>
</g>
<!-- insert&#45;&gt;not_empty -->
<g id="edge16" class="edge"><title>insert&#45;&gt;not_empty</title>
<path fill="none" stroke="black" d="M93.9699,-386.328C93.9704,-369.672 94.9428,-348.415 96.5073,-328.699"/>
<polygon fill="black" stroke="black" points="100.009,-328.824 97.3773,-318.561 93.035,-328.225 100.009,-328.824"/>
</g>
<!-- insert&#45;&gt;insert -->
<g id="edge17" class="edge"><title>insert&#45;&gt;insert</title>
<path fill="none" stroke="black" d="M125.514,-431.971C137.086,-432.97 146.895,-428.138 146.895,-417.474 146.895,-410.143 142.259,-405.567 135.601,-403.749"/>
<polygon fill="black" stroke="black" points="135.752,-400.25 125.514,-402.978 135.218,-407.23 135.752,-400.25"/>
</g>
<!-- search&#45;&gt;not_empty -->
<g id="edge12" class="edge"><title>search&#45;&gt;not_empty</title>
<path fill="none" stroke="black" d="M114.249,-183.283C114.55,-191.816 114.606,-201.284 114.433,-210.724"/>
<polygon fill="black" stroke="black" points="110.929,-210.819 114.156,-220.91 117.927,-211.009 110.929,-210.819"/>
</g>
<!-- delete -->
<g id="node8" class="node"><title>delete</title>
<ellipse fill="none" stroke="black" cx="186.698" cy="-32.4971" rx="32.4942" ry="32.4942"/>
<text text-anchor="middle" x="186.698" y="-28.7971" font-family="Times,serif" font-size="14.00">delete</text>
</g>
<!-- search&#45;&gt;delete -->
<g id="edge13" class="edge"><title>search&#45;&gt;delete</title>
<path fill="none" stroke="black" d="M103.176,-116.394C102.78,-105.204 104.147,-92.9796 109.698,-82.9942 117.932,-68.1818 132.667,-57.121 147.059,-49.2566"/>
<polygon fill="black" stroke="black" points="149.046,-52.1743 156.395,-44.5428 145.891,-45.9256 149.046,-52.1743"/>
<text text-anchor="middle" x="141.198" y="-86.7942" font-family="Times,serif" font-size="14.00">contains(x)</text>
</g>
<!-- search_empty&#45;&gt;empty -->
<g id="edge14" class="edge"><title>search_empty&#45;&gt;empty</title>
<path fill="none" stroke="black" d="M232.431,-478.283C232.495,-487.477 232.376,-496.802 232.073,-505.507"/>
<polygon fill="black" stroke="black" points="228.565,-505.622 231.614,-515.768 235.558,-505.935 228.565,-505.622"/>
</g>
<!-- search_empty&#45;&gt;search_empty -->
<g id="edge15" class="edge"><title>search_empty&#45;&gt;search_empty</title>
<path fill="none" stroke="black" d="M285.369,-431.399C296.746,-429.733 304.792,-425.091 304.792,-417.474 304.792,-412.356 301.16,-408.582 295.326,-406.15"/>
<polygon fill="black" stroke="black" points="295.929,-402.69 285.369,-403.549 294.16,-409.463 295.929,-402.69"/>
</g>
<!-- delete&#45;&gt;empty -->
<g id="edge10" class="edge"><title>delete&#45;&gt;empty</title>
<path fill="none" stroke="black" d="M217.661,-42.5767C260.518,-57.2735 332.698,-90.6555 332.698,-148.791 332.698,-418.474 332.698,-418.474 332.698,-418.474 332.698,-446.486 329.642,-455.537 313.698,-478.569 300.487,-497.652 280.445,-513.981 262.823,-525.972"/>
<polygon fill="black" stroke="black" points="260.842,-523.086 254.407,-531.503 264.686,-528.936 260.842,-523.086"/>
<text text-anchor="middle" x="350.198" y="-266.284" font-family="Times,serif" font-size="14.00">empty</text>
</g>
<!-- delete&#45;&gt;not_empty -->
<g id="edge11" class="edge"><title>delete&#45;&gt;not_empty</title>
<path fill="none" stroke="black" d="M180.172,-64.3731C177.871,-75.0378 175.227,-87.0537 172.698,-97.9942 163.876,-136.158 165.598,-146.968 151.698,-183.588 147.377,-194.972 141.884,-206.772 136.232,-217.836"/>
<polygon fill="black" stroke="black" points="133.008,-216.448 131.47,-226.931 139.209,-219.696 133.008,-216.448"/>
<text text-anchor="middle" x="189.698" y="-146.091" font-family="Times,serif" font-size="14.00">!empty</text>
</g>
</g>
</svg>
