<?xml version="1.0" encoding="UTF-8" standalone="no"?>
<!DOCTYPE svg PUBLIC "-//W3C//DTD SVG 1.1//EN"
 "http://www.w3.org/Graphics/SVG/1.1/DTD/svg11.dtd">
<!-- Generated by graphviz version 2.38.0 (20140413.2041)
 -->
<!-- Title: dictionary Pages: 1 -->
<svg width="385pt" height="816pt"
 viewBox="0.00 0.00 385.00 815.85" xmlns="http://www.w3.org/2000/svg" xmlns:xlink="http://www.w3.org/1999/xlink">
<g id="graph0" class="graph" transform="scale(1 1) rotate(0) translate(4 811.851)">
<title>dictionary</title>
<polygon fill="white" stroke="none" points="-4,4 -4,-811.851 381,-811.851 381,4 -4,4"/>
<!-- new -->
<g id="node1" class="node"><title>new</title>
<ellipse fill="none" stroke="black" cx="87" cy="-777.854" rx="25.9957" ry="25.9957"/>
<ellipse fill="none" stroke="black" cx="87" cy="-777.854" rx="29.9954" ry="29.9954"/>
<text text-anchor="middle" x="87" y="-774.154" font-family="Times,serif" font-size="14.00">new</text>
</g>
<!-- empty -->
<g id="node3" class="node"><title>empty</title>
<ellipse fill="none" stroke="black" cx="87" cy="-677.709" rx="33.2948" ry="33.2948"/>
<text text-anchor="middle" x="87" y="-674.009" font-family="Times,serif" font-size="14.00">empty</text>
</g>
<!-- new&#45;&gt;empty -->
<g id="edge1" class="edge"><title>new&#45;&gt;empty</title>
<path fill="none" stroke="black" d="M87,-747.673C87,-739.388 87,-730.192 87,-721.287"/>
<polygon fill="black" stroke="black" points="90.5001,-721.038 87,-711.038 83.5001,-721.038 90.5001,-721.038"/>
</g>
<!-- free -->
<g id="node2" class="node"><title>free</title>
<ellipse fill="none" stroke="black" cx="57" cy="-165.39" rx="24.8692" ry="24.8692"/>
<ellipse fill="none" stroke="black" cx="57" cy="-165.39" rx="28.897" ry="28.897"/>
<text text-anchor="middle" x="57" y="-161.69" font-family="Times,serif" font-size="14.00">free</text>
</g>
<!-- empty&#45;&gt;free -->
<g id="edge6" class="edge"><title>empty&#45;&gt;free</title>
<path fill="none" stroke="black" d="M75.8291,-646.355C67.2997,-620.452 57,-582.019 57,-547.467 57,-547.467 57,-547.467 57,-284.582 57,-257.713 57,-227.408 57,-204.211"/>
<polygon fill="black" stroke="black" points="60.5001,-204.092 57,-194.092 53.5001,-204.092 60.5001,-204.092"/>
</g>
<!-- empty&#45;&gt;empty -->
<g id="edge5" class="edge"><title>empty&#45;&gt;empty</title>
<path fill="none" stroke="black" d="M118.967,-687.084C129.623,-687.084 138.147,-683.959 138.147,-677.709 138.147,-673.607 134.476,-670.851 128.94,-669.442"/>
<polygon fill="black" stroke="black" points="129.292,-665.959 118.967,-668.334 128.519,-672.916 129.292,-665.959"/>
</g>
<!-- search_empty -->
<g id="node6" class="node"><title>search_empty</title>
<ellipse fill="none" stroke="black" cx="146" cy="-546.467" rx="61.1893" ry="61.1893"/>
<text text-anchor="middle" x="146" y="-542.767" font-family="Times,serif" font-size="14.00">search_empty</text>
</g>
<!-- empty&#45;&gt;search_empty -->
<g id="edge7" class="edge"><title>empty&#45;&gt;search_empty</title>
<path fill="none" stroke="black" d="M95.404,-645.423C99.8178,-634.362 105.398,-621.506 111.25,-608.819"/>
<polygon fill="black" stroke="black" points="114.477,-610.18 115.546,-599.639 108.137,-607.213 114.477,-610.18"/>
</g>
<!-- not_empty -->
<g id="node4" class="node"><title>not_empty</title>
<ellipse fill="none" stroke="black" cx="221" cy="-285.582" rx="49.2915" ry="49.2915"/>
<text text-anchor="middle" x="221" y="-281.882" font-family="Times,serif" font-size="14.00">not_empty</text>
</g>
<!-- not_empty&#45;&gt;free -->
<g id="edge3" class="edge"><title>not_empty&#45;&gt;free</title>
<path fill="none" stroke="black" d="M177.17,-262.342C155.491,-250.483 129.444,-234.905 108,-218.187 99.2666,-211.378 90.5281,-203.151 82.8142,-195.278"/>
<polygon fill="black" stroke="black" points="84.9148,-192.41 75.48,-187.589 79.8495,-197.241 84.9148,-192.41"/>
</g>
<!-- not_empty&#45;&gt;not_empty -->
<g id="edge2" class="edge"><title>not_empty&#45;&gt;not_empty</title>
<path fill="none" stroke="black" d="M269.162,-297.685C280.25,-296.642 288.396,-292.608 288.396,-285.582 288.396,-280.972 284.888,-277.65 279.342,-275.616"/>
<polygon fill="black" stroke="black" points="279.667,-272.108 269.162,-273.48 278.23,-278.959 279.667,-272.108"/>
</g>
<!-- search -->
<g id="node5" class="node"><title>search</title>
<ellipse fill="none" stroke="black" cx="221" cy="-165.39" rx="33.5952" ry="33.5952"/>
<text text-anchor="middle" x="221" y="-161.69" font-family="Times,serif" font-size="14.00">search</text>
</g>
<!-- not_empty&#45;&gt;search -->
<g id="edge4" class="edge"><title>not_empty&#45;&gt;search</title>
<path fill="none" stroke="black" d="M214.355,-236.509C214.18,-227.414 214.224,-217.957 214.488,-209.043"/>
<polygon fill="black" stroke="black" points="217.992,-209.015 214.899,-198.882 210.997,-208.732 217.992,-209.015"/>
</g>
<!-- search&#45;&gt;not_empty -->
<g id="edge10" class="edge"><title>search&#45;&gt;not_empty</title>
<path fill="none" stroke="black" d="M227.101,-198.882C227.547,-207.415 227.763,-216.883 227.749,-226.323"/>
<polygon fill="black" stroke="black" points="224.248,-226.473 227.645,-236.509 231.247,-226.546 224.248,-226.473"/>
</g>
<!-- delete -->
<g id="node7" class="node"><title>delete</title>
<ellipse fill="none" stroke="black" cx="115" cy="-40.2964" rx="32.4942" ry="32.4942"/>
<text text-anchor="middle" x="115" y="-36.5964" font-family="Times,serif" font-size="14.00">delete</text>
</g>
<!-- search&#45;&gt;delete -->
<g id="edge11" class="edge"><title>search&#45;&gt;delete</title>
<path fill="none" stroke="black" d="M195.046,-143.641C184.835,-134.887 173.344,-124.263 164,-113.593 154.193,-102.395 144.702,-89.1532 136.726,-77.0824"/>
<polygon fill="black" stroke="black" points="139.574,-75.0411 131.204,-68.5458 133.697,-78.8432 139.574,-75.0411"/>
<text text-anchor="middle" x="195.5" y="-102.393" font-family="Times,serif" font-size="14.00">contains(k)</text>
</g>
<!-- insert -->
<g id="node8" class="node"><title>insert</title>
<ellipse fill="none" stroke="black" cx="221" cy="-417.175" rx="31.3957" ry="31.3957"/>
<text text-anchor="middle" x="221" y="-413.475" font-family="Times,serif" font-size="14.00">insert</text>
</g>
<!-- search&#45;&gt;insert -->
<g id="edge12" class="edge"><title>search&#45;&gt;insert</title>
<path fill="none" stroke="black" d="M249.751,-183.862C266.974,-196.116 287.344,-214.209 297,-236.187 314.661,-276.385 313.13,-294.141 297,-334.978 288.222,-357.201 270.171,-376.913 253.864,-391.348"/>
<polygon fill="black" stroke="black" points="251.396,-388.853 246.047,-397.999 255.931,-394.185 251.396,-388.853"/>
<text text-anchor="middle" x="343" y="-281.882" font-family="Times,serif" font-size="14.00">!contains(k)</text>
</g>
<!-- reassign -->
<g id="node9" class="node"><title>reassign</title>
<ellipse fill="none" stroke="black" cx="273" cy="-40.2964" rx="40.0939" ry="40.0939"/>
<text text-anchor="middle" x="273" y="-36.5964" font-family="Times,serif" font-size="14.00">reassign</text>
</g>
<!-- search&#45;&gt;reassign -->
<g id="edge13" class="edge"><title>search&#45;&gt;reassign</title>
<path fill="none" stroke="black" d="M225.417,-131.861C227.541,-121.013 230.613,-109.037 235,-98.5928 237.427,-92.8153 240.456,-86.9977 243.739,-81.3995"/>
<polygon fill="black" stroke="black" points="246.763,-83.1638 249.057,-72.8202 240.813,-79.476 246.763,-83.1638"/>
<text text-anchor="middle" x="266.5" y="-102.393" font-family="Times,serif" font-size="14.00">contains(k)</text>
</g>
<!-- search_empty&#45;&gt;empty -->
<g id="edge14" class="edge"><title>search_empty&#45;&gt;empty</title>
<path fill="none" stroke="black" d="M126.625,-604.606C121.174,-616.838 115.23,-629.433 109.61,-640.605"/>
<polygon fill="black" stroke="black" points="106.437,-639.121 104.983,-649.615 112.664,-642.319 106.437,-639.121"/>
</g>
<!-- search_empty&#45;&gt;search_empty -->
<g id="edge15" class="edge"><title>search_empty&#45;&gt;search_empty</title>
<path fill="none" stroke="black" d="M205.671,-560.392C217.049,-558.726 225.095,-554.084 225.095,-546.467 225.095,-541.349 221.463,-537.575 215.628,-535.143"/>
<polygon fill="black" stroke="black" points="216.231,-531.683 205.671,-532.542 214.462,-538.456 216.231,-531.683"/>
</g>
<!-- search_empty&#45;&gt;insert -->
<g id="edge16" class="edge"><title>search_empty&#45;&gt;insert</title>
<path fill="none" stroke="black" d="M176.722,-493.325C184.665,-479.845 193.027,-465.652 200.319,-453.275"/>
<polygon fill="black" stroke="black" points="203.358,-455.013 205.419,-444.62 197.327,-451.459 203.358,-455.013"/>
</g>
<!-- delete&#45;&gt;empty -->
<g id="edge8" class="edge"><title>delete&#45;&gt;empty</title>
<path fill="none" stroke="black" d="M86.2773,-55.9392C52.2151,-75.5901 0,-113.941 0,-164.39 0,-547.467 0,-547.467 0,-547.467 0,-587.667 29.324,-624.751 53.9229,-648.788"/>
<polygon fill="black" stroke="black" points="51.6939,-651.497 61.3677,-655.818 56.4998,-646.407 51.6939,-651.497"/>
<text text-anchor="middle" x="17.5" y="-356.778" font-family="Times,serif" font-size="14.00">empty</text>
</g>
<!-- delete&#45;&gt;not_empty -->
<g id="edge9" class="edge"><title>delete&#45;&gt;not_empty</title>
<path fill="none" stroke="black" d="M114,-72.9391C114.197,-106.075 118.1,-158.81 138,-199.187 146.873,-217.19 160.952,-233.819 175.012,-247.527"/>
<polygon fill="black" stroke="black" points="172.656,-250.115 182.336,-254.421 177.454,-245.018 172.656,-250.115"/>
<text text-anchor="middle" x="158" y="-161.69" font-family="Times,serif" font-size="14.00">!empty</text>
</g>
<!-- insert&#45;&gt;not_empty -->
<g id="edge17" class="edge"><title>insert&#45;&gt;not_empty</title>
<path fill="none" stroke="black" d="M221,-385.792C221,-373.631 221,-359.193 221,-345.148"/>
<polygon fill="black" stroke="black" points="224.5,-345.03 221,-335.03 217.5,-345.03 224.5,-345.03"/>
</g>
<!-- reassign&#45;&gt;not_empty -->
<g id="edge18" class="edge"><title>reassign&#45;&gt;not_empty</title>
<path fill="none" stroke="black" d="M292.754,-75.6772C297.418,-87.4962 300.421,-100.94 298,-113.593 289.835,-156.267 269.257,-200.916 251.428,-233.884"/>
<polygon fill="black" stroke="black" points="248.242,-232.414 246.485,-242.862 254.374,-235.79 248.242,-232.414"/>
</g>
</g>
</svg>
