<?xml version="1.0" encoding="UTF-8" standalone="no"?>
<!DOCTYPE svg PUBLIC "-//W3C//DTD SVG 1.1//EN"
 "http://www.w3.org/Graphics/SVG/1.1/DTD/svg11.dtd">
<!-- Generated by graphviz version 2.38.0 (20140413.2041)
 -->
<!-- Title: _graph Pages: 1 -->
<svg width="769pt" height="351pt"
 viewBox="0.00 0.00 768.69 350.98" xmlns="http://www.w3.org/2000/svg" xmlns:xlink="http://www.w3.org/1999/xlink">
<g id="graph0" class="graph" transform="scale(1 1) rotate(0) translate(4 346.978)">
<title>_graph</title>
<polygon fill="white" stroke="none" points="-4,4 -4,-346.978 764.694,-346.978 764.694,4 -4,4"/>
<!-- new -->
<g id="node1" class="node"><title>new</title>
<ellipse fill="none" stroke="black" cx="380.698" cy="-312.98" rx="25.9957" ry="25.9957"/>
<ellipse fill="none" stroke="black" cx="380.698" cy="-312.98" rx="29.9954" ry="29.9954"/>
<text text-anchor="middle" x="380.698" y="-309.28" font-family="Times,serif" font-size="14.00">new</text>
</g>
<!-- adjacent -->
<g id="node3" class="node"><title>adjacent</title>
<ellipse fill="none" stroke="black" cx="380.698" cy="-205.036" rx="40.8928" ry="40.8928"/>
<text text-anchor="middle" x="380.698" y="-201.336" font-family="Times,serif" font-size="14.00">adjacent</text>
</g>
<!-- new&#45;&gt;adjacent -->
<g id="edge1" class="edge"><title>new&#45;&gt;adjacent</title>
<path fill="none" stroke="black" d="M380.698,-282.75C380.698,-274.562 380.698,-265.42 380.698,-256.38"/>
<polygon fill="black" stroke="black" points="384.198,-256.273 380.698,-246.273 377.198,-256.273 384.198,-256.273"/>
</g>
<!-- free -->
<g id="node2" class="node"><title>free</title>
<ellipse fill="none" stroke="black" cx="28.6978" cy="-56.545" rx="24.8692" ry="24.8692"/>
<ellipse fill="none" stroke="black" cx="28.6978" cy="-56.545" rx="28.897" ry="28.897"/>
<text text-anchor="middle" x="28.6978" y="-52.845" font-family="Times,serif" font-size="14.00">free</text>
</g>
<!-- adjacent&#45;&gt;free -->
<g id="edge6" class="edge"><title>adjacent&#45;&gt;free</title>
<path fill="none" stroke="black" d="M339.753,-201.16C275.616,-194.828 150.081,-174.889 65.6978,-113.09 57.9405,-107.409 51.3244,-99.5741 45.9249,-91.5793"/>
<polygon fill="black" stroke="black" points="48.8014,-89.5771 40.5469,-82.9353 42.8579,-93.2751 48.8014,-89.5771"/>
</g>
<!-- adjacent&#45;&gt;adjacent -->
<g id="edge2" class="edge"><title>adjacent&#45;&gt;adjacent</title>
<path fill="none" stroke="black" d="M420.369,-215.845C431.295,-215.323 439.644,-211.72 439.644,-205.036 439.644,-200.65 436.048,-197.591 430.488,-195.858"/>
<polygon fill="black" stroke="black" points="430.799,-192.363 420.369,-194.228 429.685,-199.274 430.799,-192.363"/>
</g>
<!-- breadth_first -->
<g id="node4" class="node"><title>breadth_first</title>
<ellipse fill="none" stroke="black" cx="131.698" cy="-56.545" rx="56.59" ry="56.59"/>
<text text-anchor="middle" x="131.698" y="-52.845" font-family="Times,serif" font-size="14.00">breadth_first</text>
</g>
<!-- adjacent&#45;&gt;breadth_first -->
<g id="edge3" class="edge"><title>adjacent&#45;&gt;breadth_first</title>
<path fill="none" stroke="black" d="M341.697,-192.303C311.948,-181.594 270.737,-164.645 236.698,-146.09 213.644,-133.523 208.601,-128.978 187.698,-113.09 184.374,-110.564 180.996,-107.922 177.628,-105.221"/>
<polygon fill="black" stroke="black" points="179.774,-102.455 169.816,-98.8368 175.345,-107.875 179.774,-102.455"/>
</g>
<!-- delete_edge -->
<g id="node5" class="node"><title>delete_edge</title>
<ellipse fill="none" stroke="black" cx="259.698" cy="-56.545" rx="53.8905" ry="53.8905"/>
<text text-anchor="middle" x="259.698" y="-52.845" font-family="Times,serif" font-size="14.00">delete_edge</text>
</g>
<!-- adjacent&#45;&gt;delete_edge -->
<g id="edge4" class="edge"><title>adjacent&#45;&gt;delete_edge</title>
<path fill="none" stroke="black" d="M340.501,-197.137C311.471,-189.825 274.238,-175.119 255.698,-146.09 250.649,-138.185 248.232,-129.025 247.478,-119.655"/>
<polygon fill="black" stroke="black" points="250.973,-119.381 247.268,-109.455 243.975,-119.525 250.973,-119.381"/>
<text text-anchor="middle" x="294.198" y="-134.89" font-family="Times,serif" font-size="14.00">adjacent(x, y)</text>
</g>
<!-- depth_first -->
<g id="node6" class="node"><title>depth_first</title>
<ellipse fill="none" stroke="black" cx="380.698" cy="-56.545" rx="49.2915" ry="49.2915"/>
<text text-anchor="middle" x="380.698" y="-52.845" font-family="Times,serif" font-size="14.00">depth_first</text>
</g>
<!-- adjacent&#45;&gt;depth_first -->
<g id="edge5" class="edge"><title>adjacent&#45;&gt;depth_first</title>
<path fill="none" stroke="black" d="M374.624,-164.394C373.975,-149.377 373.793,-131.955 374.079,-115.591"/>
<polygon fill="black" stroke="black" points="377.578,-115.651 374.317,-105.57 370.58,-115.484 377.578,-115.651"/>
</g>
<!-- insert_edge -->
<g id="node7" class="node"><title>insert_edge</title>
<ellipse fill="none" stroke="black" cx="500.698" cy="-56.545" rx="52.7911" ry="52.7911"/>
<text text-anchor="middle" x="500.698" y="-52.845" font-family="Times,serif" font-size="14.00">insert_edge</text>
</g>
<!-- adjacent&#45;&gt;insert_edge -->
<g id="edge7" class="edge"><title>adjacent&#45;&gt;insert_edge</title>
<path fill="none" stroke="black" d="M399.175,-168.247C406.175,-155.986 414.654,-142.493 423.698,-131.09 432.571,-119.901 443.101,-108.768 453.479,-98.6759"/>
<polygon fill="black" stroke="black" points="456.158,-100.958 460.984,-91.5253 451.329,-95.8897 456.158,-100.958"/>
<text text-anchor="middle" x="464.698" y="-134.89" font-family="Times,serif" font-size="14.00">!adjacent(x, y)</text>
</g>
<!-- neighbors -->
<g id="node8" class="node"><title>neighbors</title>
<ellipse fill="none" stroke="black" cx="617.698" cy="-56.545" rx="46.5926" ry="46.5926"/>
<text text-anchor="middle" x="617.698" y="-52.845" font-family="Times,serif" font-size="14.00">neighbors</text>
</g>
<!-- adjacent&#45;&gt;neighbors -->
<g id="edge8" class="edge"><title>adjacent&#45;&gt;neighbors</title>
<path fill="none" stroke="black" d="M418.845,-189.636C446.519,-179.551 484.092,-164.587 514.698,-146.09 534.13,-134.346 537.027,-128.505 553.698,-113.09 560.356,-106.933 567.287,-100.205 574.053,-93.6242"/>
<polygon fill="black" stroke="black" points="576.576,-96.0531 581.31,-86.575 571.699,-91.0319 576.576,-96.0531"/>
</g>
<!-- vertices -->
<g id="node9" class="node"><title>vertices</title>
<ellipse fill="none" stroke="black" cx="721.698" cy="-56.545" rx="38.9931" ry="38.9931"/>
<text text-anchor="middle" x="721.698" y="-52.845" font-family="Times,serif" font-size="14.00">vertices</text>
</g>
<!-- adjacent&#45;&gt;vertices -->
<g id="edge9" class="edge"><title>adjacent&#45;&gt;vertices</title>
<path fill="none" stroke="black" d="M421.084,-197.729C479.045,-187.756 586.932,-163.99 664.698,-113.09 673.096,-107.593 680.869,-100.222 687.869,-92.6502"/>
<polygon fill="black" stroke="black" points="690.577,-94.8719 694.607,-85.073 685.346,-90.2205 690.577,-94.8719"/>
</g>
<!-- breadth_first&#45;&gt;adjacent -->
<g id="edge14" class="edge"><title>breadth_first&#45;&gt;adjacent</title>
<path fill="none" stroke="black" d="M177.295,-90.3095C186.598,-97.9881 196.362,-105.994 205.698,-113.09 226.601,-128.978 231.644,-133.523 254.698,-146.09 280.399,-160.1 310.188,-173.194 334.423,-183.378"/>
<polygon fill="black" stroke="black" points="333.182,-186.653 343.759,-187.275 335.879,-180.193 333.182,-186.653"/>
</g>
<!-- delete_edge&#45;&gt;adjacent -->
<g id="edge11" class="edge"><title>delete_edge&#45;&gt;adjacent</title>
<path fill="none" stroke="black" d="M298.725,-93.9767C310.174,-105.412 322.38,-118.379 332.698,-131.09 340.311,-140.47 347.836,-151.078 354.589,-161.241"/>
<polygon fill="black" stroke="black" points="351.671,-163.174 360.066,-169.637 357.534,-159.349 351.671,-163.174"/>
</g>
<!-- depth_first&#45;&gt;adjacent -->
<g id="edge15" class="edge"><title>depth_first&#45;&gt;adjacent</title>
<path fill="none" stroke="black" d="M387.079,-105.57C387.554,-121.196 387.57,-138.567 387.128,-154.314"/>
<polygon fill="black" stroke="black" points="383.628,-154.276 386.772,-164.394 390.623,-154.524 383.628,-154.276"/>
</g>
<!-- insert_edge&#45;&gt;adjacent -->
<g id="edge10" class="edge"><title>insert_edge&#45;&gt;adjacent</title>
<path fill="none" stroke="black" d="M513.784,-107.602C514.64,-120.958 512.908,-134.801 505.698,-146.09 489.186,-171.944 457.846,-186.437 430.679,-194.463"/>
<polygon fill="black" stroke="black" points="429.618,-191.125 420.894,-197.137 431.463,-197.877 429.618,-191.125"/>
</g>
<!-- neighbors&#45;&gt;adjacent -->
<g id="edge13" class="edge"><title>neighbors&#45;&gt;adjacent</title>
<path fill="none" stroke="black" d="M590.62,-94.7564C584.494,-100.974 577.975,-107.285 571.698,-113.09 555.027,-128.505 552.13,-134.346 532.698,-146.09 500.633,-165.469 460.921,-180.969 430.021,-191.044"/>
<polygon fill="black" stroke="black" points="428.792,-187.762 420.319,-194.123 430.91,-194.434 428.792,-187.762"/>
</g>
<!-- vertices&#45;&gt;adjacent -->
<g id="edge12" class="edge"><title>vertices&#45;&gt;adjacent</title>
<path fill="none" stroke="black" d="M705.653,-92.2895C699.116,-99.9879 691.229,-107.506 682.698,-113.09 604.178,-164.483 494.951,-188.214 431.544,-198.015"/>
<polygon fill="black" stroke="black" points="430.77,-194.592 421.394,-199.525 431.8,-201.515 430.77,-194.592"/>
</g>
</g>
</svg>
