<?xml version="1.0" encoding="UTF-8" standalone="no"?>
<!DOCTYPE svg PUBLIC "-//W3C//DTD SVG 1.1//EN"
 "http://www.w3.org/Graphics/SVG/1.1/DTD/svg11.dtd">
<!-- Generated by graphviz version 2.38.0 (20140413.2041)
 -->
<!-- Title: iterator Pages: 1 -->
<svg width="300pt" height="499pt"
 viewBox="0.00 0.00 300.14 498.67" xmlns="http://www.w3.org/2000/svg" xmlns:xlink="http://www.w3.org/1999/xlink">
<g id="graph0" class="graph" transform="scale(1 1) rotate(0) translate(4 494.669)">
<title>iterator</title>
<polygon fill="white" stroke="none" points="-4,4 -4,-494.669 296.14,-494.669 296.14,4 -4,4"/>
<!-- new -->
<g id="node1" class="node"><title>new</title>
<ellipse fill="none" stroke="black" cx="40.7428" cy="-460.671" rx="25.9957" ry="25.9957"/>
<ellipse fill="none" stroke="black" cx="40.7428" cy="-460.671" rx="29.9954" ry="29.9954"/>
<text text-anchor="middle" x="40.7428" y="-456.971" font-family="Times,serif" font-size="14.00">new</text>
</g>
<!-- free -->
<g id="node2" class="node"><title>free</title>
<ellipse fill="none" stroke="black" cx="110.743" cy="-28.6978" rx="24.8692" ry="24.8692"/>
<ellipse fill="none" stroke="black" cx="110.743" cy="-28.6978" rx="28.897" ry="28.897"/>
<text text-anchor="middle" x="110.743" y="-24.9978" font-family="Times,serif" font-size="14.00">free</text>
</g>
<!-- new&#45;&gt;free -->
<g id="edge2" class="edge"><title>new&#45;&gt;free</title>
<path fill="none" stroke="black" d="M31.4703,-431.752C12.0411,-368.094 -26.7528,-208.871 28.7428,-94.3956 38.6449,-73.9696 58.4697,-58.05 76.1454,-47.1136"/>
<polygon fill="black" stroke="black" points="78.2693,-49.9259 85.1289,-41.8514 74.7312,-43.8858 78.2693,-49.9259"/>
</g>
<!-- move_next -->
<g id="node3" class="node"><title>move_next</title>
<ellipse fill="none" stroke="black" cx="154.743" cy="-342.328" rx="51.1914" ry="51.1914"/>
<text text-anchor="middle" x="154.743" y="-338.628" font-family="Times,serif" font-size="14.00">move_next</text>
</g>
<!-- new&#45;&gt;move_next -->
<g id="edge1" class="edge"><title>new&#45;&gt;move_next</title>
<path fill="none" stroke="black" d="M61.3873,-438.602C75.423,-424.278 94.5064,-404.803 111.762,-387.192"/>
<polygon fill="black" stroke="black" points="114.527,-389.372 119.025,-379.78 109.527,-384.473 114.527,-389.372"/>
</g>
<!-- move_next&#45;&gt;move_next -->
<g id="edge3" class="edge"><title>move_next&#45;&gt;move_next</title>
<path fill="none" stroke="black" d="M204.611,-354.767C215.86,-353.646 224.088,-349.5 224.088,-342.328 224.088,-337.51 220.374,-334.057 214.525,-331.97"/>
<polygon fill="black" stroke="black" points="215.117,-328.518 204.611,-329.889 213.679,-335.369 215.117,-328.518"/>
<text text-anchor="middle" x="235.088" y="-338.628" font-family="Times,serif" font-size="14.00">true</text>
</g>
<!-- move_next_false -->
<g id="node4" class="node"><title>move_next_false</title>
<ellipse fill="none" stroke="black" cx="110.743" cy="-167.189" rx="72.5877" ry="72.5877"/>
<text text-anchor="middle" x="110.743" y="-163.489" font-family="Times,serif" font-size="14.00">move_next_false</text>
</g>
<!-- move_next&#45;&gt;move_next_false -->
<g id="edge4" class="edge"><title>move_next&#45;&gt;move_next_false</title>
<path fill="none" stroke="black" d="M142.252,-292.177C138.73,-278.317 134.805,-262.872 130.953,-247.718"/>
<polygon fill="black" stroke="black" points="134.293,-246.65 128.438,-237.82 127.509,-248.374 134.293,-246.65"/>
<text text-anchor="middle" x="149.243" y="-261.783" font-family="Times,serif" font-size="14.00">false</text>
</g>
<!-- current -->
<g id="node5" class="node"><title>current</title>
<ellipse fill="none" stroke="black" cx="237.743" cy="-167.189" rx="36.2938" ry="36.2938"/>
<text text-anchor="middle" x="237.743" y="-163.489" font-family="Times,serif" font-size="14.00">current</text>
</g>
<!-- move_next&#45;&gt;current -->
<g id="edge5" class="edge"><title>move_next&#45;&gt;current</title>
<path fill="none" stroke="black" d="M171.535,-293.559C183.606,-266.369 199.847,-232.741 213.315,-207.16"/>
<polygon fill="black" stroke="black" points="216.516,-208.596 218.139,-198.126 210.341,-205.299 216.516,-208.596"/>
</g>
<!-- move_next_false&#45;&gt;free -->
<g id="edge6" class="edge"><title>move_next_false&#45;&gt;free</title>
<path fill="none" stroke="black" d="M110.743,-94.3461C110.743,-85.134 110.743,-76.0096 110.743,-67.6467"/>
<polygon fill="black" stroke="black" points="114.243,-67.5117 110.743,-57.5117 107.243,-67.5117 114.243,-67.5117"/>
</g>
<!-- current&#45;&gt;free -->
<g id="edge7" class="edge"><title>current&#45;&gt;free</title>
<path fill="none" stroke="black" d="M221.073,-134.522C213.378,-121.388 203.55,-106.439 192.743,-94.3956 178.13,-78.1113 159.077,-62.8053 143.014,-51.1727"/>
<polygon fill="black" stroke="black" points="144.629,-48.0278 134.446,-45.1052 140.584,-53.7406 144.629,-48.0278"/>
</g>
<!-- current&#45;&gt;move_next -->
<g id="edge9" class="edge"><title>current&#45;&gt;move_next</title>
<path fill="none" stroke="black" d="M226.928,-202.209C216.421,-226.974 200.376,-260.97 186.005,-289.156"/>
<polygon fill="black" stroke="black" points="182.874,-287.592 181.407,-298.084 189.097,-290.797 182.874,-287.592"/>
</g>
<!-- current&#45;&gt;current -->
<g id="edge8" class="edge"><title>current&#45;&gt;current</title>
<path fill="none" stroke="black" d="M270.133,-184.027C282.204,-184.579 292.14,-178.967 292.14,-167.189 292.14,-158.908 287.227,-153.675 280.115,-151.49"/>
<polygon fill="black" stroke="black" points="280.465,-148.007 270.133,-150.351 279.672,-154.962 280.465,-148.007"/>
</g>
</g>
</svg>
