<?xml version="1.0" encoding="UTF-8" standalone="no"?>
<!DOCTYPE svg PUBLIC "-//W3C//DTD SVG 1.1//EN"
 "http://www.w3.org/Graphics/SVG/1.1/DTD/svg11.dtd">
<!-- Generated by graphviz version 2.38.0 (20140413.2041)
 -->
<!-- Title: queue Pages: 1 -->
<svg width="258pt" height="573pt"
 viewBox="0.00 0.00 257.64 572.87" xmlns="http://www.w3.org/2000/svg" xmlns:xlink="http://www.w3.org/1999/xlink">
<g id="graph0" class="graph" transform="scale(1 1) rotate(0) translate(4 568.866)">
<title>queue</title>
<polygon fill="white" stroke="none" points="-4,4 -4,-568.866 253.644,-568.866 253.644,4 -4,4"/>
<!-- new -->
<g id="node1" class="node"><title>new</title>
<ellipse fill="none" stroke="black" cx="105.698" cy="-534.869" rx="25.9957" ry="25.9957"/>
<ellipse fill="none" stroke="black" cx="105.698" cy="-534.869" rx="29.9954" ry="29.9954"/>
<text text-anchor="middle" x="105.698" y="-531.169" font-family="Times,serif" font-size="14.00">new</text>
</g>
<!-- empty -->
<g id="node3" class="node"><title>empty</title>
<ellipse fill="none" stroke="black" cx="105.698" cy="-434.724" rx="33.2948" ry="33.2948"/>
<text text-anchor="middle" x="105.698" y="-431.024" font-family="Times,serif" font-size="14.00">empty</text>
</g>
<!-- new&#45;&gt;empty -->
<g id="edge1" class="edge"><title>new&#45;&gt;empty</title>
<path fill="none" stroke="black" d="M105.698,-504.688C105.698,-496.403 105.698,-487.207 105.698,-478.302"/>
<polygon fill="black" stroke="black" points="109.198,-478.053 105.698,-468.053 102.198,-478.053 109.198,-478.053"/>
</g>
<!-- free -->
<g id="node2" class="node"><title>free</title>
<ellipse fill="none" stroke="black" cx="28.6978" cy="-40.9464" rx="24.8692" ry="24.8692"/>
<ellipse fill="none" stroke="black" cx="28.6978" cy="-40.9464" rx="28.897" ry="28.897"/>
<text text-anchor="middle" x="28.6978" y="-37.2464" font-family="Times,serif" font-size="14.00">free</text>
</g>
<!-- empty&#45;&gt;free -->
<g id="edge8" class="edge"><title>empty&#45;&gt;free</title>
<path fill="none" stroke="black" d="M83.5857,-410.027C73.2456,-397.482 61.8733,-381.247 55.6978,-364.577 19.5206,-266.919 21.5671,-141.621 25.4585,-79.8478"/>
<polygon fill="black" stroke="black" points="28.9563,-79.9974 26.1453,-69.7823 21.9726,-79.5208 28.9563,-79.9974"/>
</g>
<!-- empty&#45;&gt;empty -->
<g id="edge7" class="edge"><title>empty&#45;&gt;empty</title>
<path fill="none" stroke="black" d="M137.665,-444.099C148.32,-444.099 156.845,-440.974 156.845,-434.724 156.845,-430.622 153.174,-427.866 147.638,-426.457"/>
<polygon fill="black" stroke="black" points="147.99,-422.974 137.665,-425.349 147.217,-429.931 147.99,-422.974"/>
</g>
<!-- enqueue -->
<g id="node5" class="node"><title>enqueue</title>
<ellipse fill="none" stroke="black" cx="105.698" cy="-323.63" rx="40.8928" ry="40.8928"/>
<text text-anchor="middle" x="105.698" y="-319.93" font-family="Times,serif" font-size="14.00">enqueue</text>
</g>
<!-- empty&#45;&gt;enqueue -->
<g id="edge9" class="edge"><title>empty&#45;&gt;enqueue</title>
<path fill="none" stroke="black" d="M105.698,-401.288C105.698,-392.982 105.698,-383.853 105.698,-374.881"/>
<polygon fill="black" stroke="black" points="109.198,-374.869 105.698,-364.869 102.198,-374.869 109.198,-374.869"/>
</g>
<!-- not_empty -->
<g id="node4" class="node"><title>not_empty</title>
<ellipse fill="none" stroke="black" cx="105.698" cy="-182.288" rx="49.2915" ry="49.2915"/>
<text text-anchor="middle" x="105.698" y="-178.588" font-family="Times,serif" font-size="14.00">not_empty</text>
</g>
<!-- not_empty&#45;&gt;free -->
<g id="edge3" class="edge"><title>not_empty&#45;&gt;free</title>
<path fill="none" stroke="black" d="M82.1769,-138.724C70.9266,-118.365 57.6546,-94.3477 47.1468,-75.3323"/>
<polygon fill="black" stroke="black" points="50.1315,-73.4969 42.2314,-66.4372 44.0047,-76.8826 50.1315,-73.4969"/>
</g>
<!-- not_empty&#45;&gt;not_empty -->
<g id="edge2" class="edge"><title>not_empty&#45;&gt;not_empty</title>
<path fill="none" stroke="black" d="M153.246,-195.919C164.646,-194.853 173.093,-190.31 173.093,-182.288 173.093,-176.899 169.28,-173.08 163.32,-170.83"/>
<polygon fill="black" stroke="black" points="163.759,-167.344 153.246,-168.658 162.284,-174.187 163.759,-167.344"/>
</g>
<!-- not_empty&#45;&gt;enqueue -->
<g id="edge4" class="edge"><title>not_empty&#45;&gt;enqueue</title>
<path fill="none" stroke="black" d="M112.151,-231.364C112.532,-244.808 112.546,-259.443 112.194,-272.977"/>
<polygon fill="black" stroke="black" points="108.692,-272.961 111.853,-283.073 115.688,-273.197 108.692,-272.961"/>
</g>
<!-- dequeue -->
<g id="node6" class="node"><title>dequeue</title>
<ellipse fill="none" stroke="black" cx="208.698" cy="-40.9464" rx="40.8928" ry="40.8928"/>
<text text-anchor="middle" x="208.698" y="-37.2464" font-family="Times,serif" font-size="14.00">dequeue</text>
</g>
<!-- not_empty&#45;&gt;dequeue -->
<g id="edge5" class="edge"><title>not_empty&#45;&gt;dequeue</title>
<path fill="none" stroke="black" d="M147.19,-154.862C161.451,-143.993 176.402,-130.319 186.698,-114.893 191.501,-107.697 195.286,-99.4159 198.259,-91.0746"/>
<polygon fill="black" stroke="black" points="201.667,-91.9072 201.389,-81.316 195.002,-89.7691 201.667,-91.9072"/>
</g>
<!-- head -->
<g id="node7" class="node"><title>head</title>
<ellipse fill="none" stroke="black" cx="103.698" cy="-40.9464" rx="27.8951" ry="27.8951"/>
<text text-anchor="middle" x="103.698" y="-37.2464" font-family="Times,serif" font-size="14.00">head</text>
</g>
<!-- not_empty&#45;&gt;head -->
<g id="edge6" class="edge"><title>not_empty&#45;&gt;head</title>
<path fill="none" stroke="black" d="M98.5599,-133.335C97.7958,-115.511 97.6466,-95.5806 98.189,-78.8917"/>
<polygon fill="black" stroke="black" points="101.705,-78.591 98.6459,-68.4476 94.7121,-78.285 101.705,-78.591"/>
</g>
<!-- enqueue&#45;&gt;not_empty -->
<g id="edge12" class="edge"><title>enqueue&#45;&gt;not_empty</title>
<path fill="none" stroke="black" d="M99.5427,-283.073C98.9981,-270.124 98.8274,-255.457 99.0306,-241.43"/>
<polygon fill="black" stroke="black" points="102.531,-241.436 99.2447,-231.364 95.5328,-241.287 102.531,-241.436"/>
</g>
<!-- enqueue&#45;&gt;enqueue -->
<g id="edge13" class="edge"><title>enqueue&#45;&gt;enqueue</title>
<path fill="none" stroke="black" d="M145.369,-334.439C156.295,-333.917 164.644,-330.314 164.644,-323.63 164.644,-319.244 161.048,-316.185 155.488,-314.452"/>
<polygon fill="black" stroke="black" points="155.799,-310.957 145.369,-312.822 154.685,-317.868 155.799,-310.957"/>
</g>
<!-- dequeue&#45;&gt;empty -->
<g id="edge10" class="edge"><title>dequeue&#45;&gt;empty</title>
<path fill="none" stroke="black" d="M212.638,-81.746C217.153,-145.063 218.877,-271.116 173.698,-364.577 165.809,-380.896 152.53,-395.718 139.789,-407.416"/>
<polygon fill="black" stroke="black" points="137.178,-405.051 131.978,-414.282 141.8,-410.309 137.178,-405.051"/>
<text text-anchor="middle" x="225.198" y="-253.484" font-family="Times,serif" font-size="14.00">empty</text>
</g>
<!-- dequeue&#45;&gt;not_empty -->
<g id="edge11" class="edge"><title>dequeue&#45;&gt;not_empty</title>
<path fill="none" stroke="black" d="M177.224,-67.4121C162.993,-79.3547 148.15,-92.5462 142.698,-99.8927 136.731,-107.933 131.422,-117.088 126.818,-126.287"/>
<polygon fill="black" stroke="black" points="123.59,-124.927 122.451,-135.46 129.91,-127.935 123.59,-124.927"/>
<text text-anchor="middle" x="162.698" y="-103.693" font-family="Times,serif" font-size="14.00">!empty</text>
</g>
<!-- head&#45;&gt;not_empty -->
<g id="edge15" class="edge"><title>head&#45;&gt;not_empty</title>
<path fill="none" stroke="black" d="M109.498,-68.2963C110.82,-83.7281 111.526,-103.861 111.53,-122.851"/>
<polygon fill="black" stroke="black" points="108.03,-122.922 111.465,-132.944 115.03,-122.967 108.03,-122.922"/>
</g>
<!-- head&#45;&gt;head -->
<g id="edge14" class="edge"><title>head&#45;&gt;head</title>
<path fill="none" stroke="black" d="M129.213,-53.1733C140.221,-54.1744 149.645,-50.0987 149.645,-40.9464 149.645,-34.7971 145.391,-30.9396 139.26,-29.3738"/>
<polygon fill="black" stroke="black" points="139.419,-25.8768 129.213,-28.7194 138.964,-32.862 139.419,-25.8768"/>
</g>
</g>
</svg>
