<?xml version="1.0" encoding="UTF-8" standalone="no"?>
<!DOCTYPE svg PUBLIC "-//W3C//DTD SVG 1.1//EN"
 "http://www.w3.org/Graphics/SVG/1.1/DTD/svg11.dtd">
<!-- Generated by graphviz version 2.38.0 (20140413.2041)
 -->
<!-- Title: set Pages: 1 -->
<svg width="342pt" height="800pt"
 viewBox="0.00 0.00 341.70 800.25" xmlns="http://www.w3.org/2000/svg" xmlns:xlink="http://www.w3.org/1999/xlink">
<g id="graph0" class="graph" transform="scale(1 1) rotate(0) translate(4 796.253)">
<title>set</title>
<polygon fill="white" stroke="none" points="-4,4 -4,-796.253 337.698,-796.253 337.698,4 -4,4"/>
<!-- new -->
<g id="node1" class="node"><title>new</title>
<ellipse fill="none" stroke="black" cx="151.698" cy="-762.255" rx="25.9957" ry="25.9957"/>
<ellipse fill="none" stroke="black" cx="151.698" cy="-762.255" rx="29.9954" ry="29.9954"/>
<text text-anchor="middle" x="151.698" y="-758.555" font-family="Times,serif" font-size="14.00">new</text>
</g>
<!-- empty -->
<g id="node3" class="node"><title>empty</title>
<ellipse fill="none" stroke="black" cx="151.698" cy="-662.11" rx="33.2948" ry="33.2948"/>
<text text-anchor="middle" x="151.698" y="-658.41" font-family="Times,serif" font-size="14.00">empty</text>
</g>
<!-- new&#45;&gt;empty -->
<g id="edge1" class="edge"><title>new&#45;&gt;empty</title>
<path fill="none" stroke="black" d="M151.698,-732.074C151.698,-723.789 151.698,-714.593 151.698,-705.688"/>
<polygon fill="black" stroke="black" points="155.198,-705.44 151.698,-695.44 148.198,-705.44 155.198,-705.44"/>
</g>
<!-- free -->
<g id="node2" class="node"><title>free</title>
<ellipse fill="none" stroke="black" cx="28.6978" cy="-149.791" rx="24.8692" ry="24.8692"/>
<ellipse fill="none" stroke="black" cx="28.6978" cy="-149.791" rx="28.897" ry="28.897"/>
<text text-anchor="middle" x="28.6978" y="-146.091" font-family="Times,serif" font-size="14.00">free</text>
</g>
<!-- empty&#45;&gt;free -->
<g id="edge6" class="edge"><title>empty&#45;&gt;free</title>
<path fill="none" stroke="black" d="M121.778,-647.481C83.6705,-627.828 22.6978,-587.664 22.6978,-531.869 22.6978,-531.869 22.6978,-531.869 22.6978,-268.984 22.6978,-242.08 24.2676,-211.775 25.8013,-188.588"/>
<polygon fill="black" stroke="black" points="29.3025,-188.69 26.4977,-178.473 22.3191,-188.209 29.3025,-188.69"/>
</g>
<!-- empty&#45;&gt;empty -->
<g id="edge5" class="edge"><title>empty&#45;&gt;empty</title>
<path fill="none" stroke="black" d="M183.665,-671.485C194.32,-671.485 202.845,-668.36 202.845,-662.11 202.845,-658.009 199.174,-655.253 193.638,-653.843"/>
<polygon fill="black" stroke="black" points="193.99,-650.361 183.665,-652.735 193.217,-657.318 193.99,-650.361"/>
</g>
<!-- search_empty -->
<g id="node6" class="node"><title>search_empty</title>
<ellipse fill="none" stroke="black" cx="151.698" cy="-530.869" rx="61.1893" ry="61.1893"/>
<text text-anchor="middle" x="151.698" y="-527.169" font-family="Times,serif" font-size="14.00">search_empty</text>
</g>
<!-- empty&#45;&gt;search_empty -->
<g id="edge7" class="edge"><title>empty&#45;&gt;search_empty</title>
<path fill="none" stroke="black" d="M145.782,-629.163C145.311,-620.73 145.039,-611.29 144.967,-601.696"/>
<polygon fill="black" stroke="black" points="148.467,-601.676 144.964,-591.677 141.467,-601.679 148.467,-601.676"/>
</g>
<!-- not_empty -->
<g id="node4" class="node"><title>not_empty</title>
<ellipse fill="none" stroke="black" cx="99.6978" cy="-269.984" rx="49.2915" ry="49.2915"/>
<text text-anchor="middle" x="99.6978" y="-266.284" font-family="Times,serif" font-size="14.00">not_empty</text>
</g>
<!-- not_empty&#45;&gt;free -->
<g id="edge3" class="edge"><title>not_empty&#45;&gt;free</title>
<path fill="none" stroke="black" d="M74.6659,-227.314C66.1021,-213.058 56.6457,-197.316 48.5477,-183.835"/>
<polygon fill="black" stroke="black" points="51.3359,-181.68 43.1861,-174.91 45.3353,-185.284 51.3359,-181.68"/>
</g>
<!-- not_empty&#45;&gt;not_empty -->
<g id="edge2" class="edge"><title>not_empty&#45;&gt;not_empty</title>
<path fill="none" stroke="black" d="M147.859,-282.086C158.948,-281.043 167.093,-277.009 167.093,-269.984 167.093,-265.373 163.585,-262.051 158.04,-260.017"/>
<polygon fill="black" stroke="black" points="158.365,-256.509 147.859,-257.882 156.928,-263.36 158.365,-256.509"/>
</g>
<!-- search -->
<g id="node5" class="node"><title>search</title>
<ellipse fill="none" stroke="black" cx="191.698" cy="-149.791" rx="33.5952" ry="33.5952"/>
<text text-anchor="middle" x="191.698" y="-146.091" font-family="Times,serif" font-size="14.00">search</text>
</g>
<!-- not_empty&#45;&gt;search -->
<g id="edge4" class="edge"><title>not_empty&#45;&gt;search</title>
<path fill="none" stroke="black" d="M125.403,-227.646C136.614,-212.621 149.771,-195.908 161.444,-181.915"/>
<polygon fill="black" stroke="black" points="164.334,-183.918 168.12,-174.023 158.989,-179.398 164.334,-183.918"/>
</g>
<!-- search&#45;&gt;not_empty -->
<g id="edge10" class="edge"><title>search&#45;&gt;not_empty</title>
<path fill="none" stroke="black" d="M175.246,-179.485C165.329,-193.34 152.375,-210.259 139.967,-225.642"/>
<polygon fill="black" stroke="black" points="137.149,-223.559 133.546,-233.522 142.576,-227.981 137.149,-223.559"/>
</g>
<!-- delete -->
<g id="node7" class="node"><title>delete</title>
<ellipse fill="none" stroke="black" cx="191.698" cy="-32.4971" rx="32.4942" ry="32.4942"/>
<text text-anchor="middle" x="191.698" y="-28.7971" font-family="Times,serif" font-size="14.00">delete</text>
</g>
<!-- search&#45;&gt;delete -->
<g id="edge11" class="edge"><title>search&#45;&gt;delete</title>
<path fill="none" stroke="black" d="M191.698,-115.753C191.698,-103.256 191.698,-88.8608 191.698,-75.6405"/>
<polygon fill="black" stroke="black" points="195.198,-75.3487 191.698,-65.3487 188.198,-75.3488 195.198,-75.3487"/>
<text text-anchor="middle" x="223.198" y="-86.7942" font-family="Times,serif" font-size="14.00">contains(k)</text>
</g>
<!-- insert -->
<g id="node8" class="node"><title>insert</title>
<ellipse fill="none" stroke="black" cx="151.698" cy="-401.577" rx="31.3957" ry="31.3957"/>
<text text-anchor="middle" x="151.698" y="-397.877" font-family="Times,serif" font-size="14.00">insert</text>
</g>
<!-- search&#45;&gt;insert -->
<g id="edge12" class="edge"><title>search&#45;&gt;insert</title>
<path fill="none" stroke="black" d="M190.452,-183.692C188.721,-217.867 184.712,-272.761 175.698,-319.379 172.962,-333.525 168.804,-348.742 164.712,-362.136"/>
<polygon fill="black" stroke="black" points="161.279,-361.385 161.621,-371.975 167.957,-363.483 161.279,-361.385"/>
<text text-anchor="middle" x="222.698" y="-266.284" font-family="Times,serif" font-size="14.00">!contains(k)</text>
</g>
<!-- search_empty&#45;&gt;empty -->
<g id="edge13" class="edge"><title>search_empty&#45;&gt;empty</title>
<path fill="none" stroke="black" d="M158.431,-591.677C158.495,-600.872 158.376,-610.196 158.073,-618.902"/>
<polygon fill="black" stroke="black" points="154.565,-619.016 157.614,-629.163 161.558,-619.329 154.565,-619.016"/>
</g>
<!-- search_empty&#45;&gt;search_empty -->
<g id="edge14" class="edge"><title>search_empty&#45;&gt;search_empty</title>
<path fill="none" stroke="black" d="M211.369,-544.794C222.746,-543.127 230.792,-538.486 230.792,-530.869 230.792,-525.751 227.16,-521.976 221.326,-519.545"/>
<polygon fill="black" stroke="black" points="221.929,-516.085 211.369,-516.943 220.16,-522.857 221.929,-516.085"/>
</g>
<!-- search_empty&#45;&gt;insert -->
<g id="edge15" class="edge"><title>search_empty&#45;&gt;insert</title>
<path fill="none" stroke="black" d="M151.698,-469.578C151.698,-460.631 151.698,-451.597 151.698,-443.183"/>
<polygon fill="black" stroke="black" points="155.198,-442.911 151.698,-432.911 148.198,-442.911 155.198,-442.911"/>
</g>
<!-- delete&#45;&gt;empty -->
<g id="edge8" class="edge"><title>delete&#45;&gt;empty</title>
<path fill="none" stroke="black" d="M220.372,-48.4034C252.067,-67.1772 298.698,-102.64 298.698,-148.791 298.698,-531.869 298.698,-531.869 298.698,-531.869 298.698,-588.855 235.62,-626.64 192.103,-645.927"/>
<polygon fill="black" stroke="black" points="190.691,-642.724 182.873,-649.874 193.444,-649.161 190.691,-642.724"/>
<text text-anchor="middle" x="316.198" y="-341.179" font-family="Times,serif" font-size="14.00">empty</text>
</g>
<!-- delete&#45;&gt;not_empty -->
<g id="edge9" class="edge"><title>delete&#45;&gt;not_empty</title>
<path fill="none" stroke="black" d="M165.246,-51.4297C145.826,-66.239 120.807,-89.1386 108.698,-115.994 95.4907,-145.285 92.7412,-180.985 93.5219,-210.53"/>
<polygon fill="black" stroke="black" points="90.032,-210.853 93.9339,-220.703 97.0262,-210.57 90.032,-210.853"/>
<text text-anchor="middle" x="128.698" y="-146.091" font-family="Times,serif" font-size="14.00">!empty</text>
</g>
<!-- insert&#45;&gt;not_empty -->
<g id="edge16" class="edge"><title>insert&#45;&gt;not_empty</title>
<path fill="none" stroke="black" d="M140.415,-372.457C134.896,-358.704 128.059,-341.665 121.573,-325.502"/>
<polygon fill="black" stroke="black" points="124.78,-324.095 117.808,-316.117 118.284,-326.701 124.78,-324.095"/>
</g>
</g>
</svg>
