<?xml version="1.0" encoding="UTF-8" standalone="no"?>
<!DOCTYPE svg PUBLIC "-//W3C//DTD SVG 1.1//EN"
 "http://www.w3.org/Graphics/SVG/1.1/DTD/svg11.dtd">
<!-- Generated by graphviz version 2.38.0 (20140413.2041)
 -->
<!-- Title: stack Pages: 1 -->
<svg width="235pt" height="522pt"
 viewBox="0.00 0.00 234.70 522.37" xmlns="http://www.w3.org/2000/svg" xmlns:xlink="http://www.w3.org/1999/xlink">
<g id="graph0" class="graph" transform="scale(1 1) rotate(0) translate(4 518.371)">
<title>stack</title>
<polygon fill="white" stroke="none" points="-4,4 -4,-518.371 230.698,-518.371 230.698,4 -4,4"/>
<!-- new -->
<g id="node1" class="node"><title>new</title>
<ellipse fill="none" stroke="black" cx="105.698" cy="-484.374" rx="25.9957" ry="25.9957"/>
<ellipse fill="none" stroke="black" cx="105.698" cy="-484.374" rx="29.9954" ry="29.9954"/>
<text text-anchor="middle" x="105.698" y="-480.674" font-family="Times,serif" font-size="14.00">new</text>
</g>
<!-- empty -->
<g id="node3" class="node"><title>empty</title>
<ellipse fill="none" stroke="black" cx="105.698" cy="-384.229" rx="33.2948" ry="33.2948"/>
<text text-anchor="middle" x="105.698" y="-380.529" font-family="Times,serif" font-size="14.00">empty</text>
</g>
<!-- new&#45;&gt;empty -->
<g id="edge1" class="edge"><title>new&#45;&gt;empty</title>
<path fill="none" stroke="black" d="M105.698,-454.193C105.698,-445.908 105.698,-436.712 105.698,-427.807"/>
<polygon fill="black" stroke="black" points="109.198,-427.559 105.698,-417.559 102.198,-427.559 109.198,-427.559"/>
</g>
<!-- free -->
<g id="node2" class="node"><title>free</title>
<ellipse fill="none" stroke="black" cx="28.6978" cy="-28.6978" rx="24.8692" ry="24.8692"/>
<ellipse fill="none" stroke="black" cx="28.6978" cy="-28.6978" rx="28.897" ry="28.897"/>
<text text-anchor="middle" x="28.6978" y="-24.9978" font-family="Times,serif" font-size="14.00">free</text>
</g>
<!-- empty&#45;&gt;free -->
<g id="edge8" class="edge"><title>empty&#45;&gt;free</title>
<path fill="none" stroke="black" d="M88.421,-355.508C81.4061,-343.207 73.7756,-328.316 68.6978,-314.082 38.5605,-229.599 31.0269,-123.41 29.211,-67.7468"/>
<polygon fill="black" stroke="black" points="32.7064,-67.531 28.9266,-57.6333 25.7092,-67.7278 32.7064,-67.531"/>
</g>
<!-- empty&#45;&gt;empty -->
<g id="edge7" class="edge"><title>empty&#45;&gt;empty</title>
<path fill="none" stroke="black" d="M137.665,-393.604C148.32,-393.604 156.845,-390.479 156.845,-384.229 156.845,-380.127 153.174,-377.372 147.638,-375.962"/>
<polygon fill="black" stroke="black" points="147.99,-372.479 137.665,-374.854 147.217,-379.437 147.99,-372.479"/>
</g>
<!-- push -->
<g id="node5" class="node"><title>push</title>
<ellipse fill="none" stroke="black" cx="105.698" cy="-286.134" rx="27.8951" ry="27.8951"/>
<text text-anchor="middle" x="105.698" y="-282.434" font-family="Times,serif" font-size="14.00">push</text>
</g>
<!-- empty&#45;&gt;push -->
<g id="edge9" class="edge"><title>empty&#45;&gt;push</title>
<path fill="none" stroke="black" d="M105.698,-350.964C105.698,-342.42 105.698,-333.128 105.698,-324.345"/>
<polygon fill="black" stroke="black" points="109.198,-324.345 105.698,-314.345 102.198,-324.345 109.198,-324.345"/>
</g>
<!-- not_empty -->
<g id="node4" class="node"><title>not_empty</title>
<ellipse fill="none" stroke="black" cx="105.698" cy="-157.791" rx="49.2915" ry="49.2915"/>
<text text-anchor="middle" x="105.698" y="-154.091" font-family="Times,serif" font-size="14.00">not_empty</text>
</g>
<!-- not_empty&#45;&gt;free -->
<g id="edge3" class="edge"><title>not_empty&#45;&gt;free</title>
<path fill="none" stroke="black" d="M80.4851,-115.176C70.0491,-97.9508 58.1285,-78.275 48.3569,-62.1464"/>
<polygon fill="black" stroke="black" points="51.3477,-60.3283 43.1724,-53.5891 45.3607,-63.9555 51.3477,-60.3283"/>
</g>
<!-- not_empty&#45;&gt;not_empty -->
<g id="edge2" class="edge"><title>not_empty&#45;&gt;not_empty</title>
<path fill="none" stroke="black" d="M153.246,-171.421C164.646,-170.356 173.093,-165.813 173.093,-157.791 173.093,-152.402 169.28,-148.582 163.32,-146.333"/>
<polygon fill="black" stroke="black" points="163.759,-142.847 153.246,-144.161 162.284,-149.69 163.759,-142.847"/>
</g>
<!-- not_empty&#45;&gt;push -->
<g id="edge4" class="edge"><title>not_empty&#45;&gt;push</title>
<path fill="none" stroke="black" d="M112.275,-206.934C112.599,-220.78 112.467,-235.648 111.881,-248.663"/>
<polygon fill="black" stroke="black" points="108.386,-248.466 111.312,-258.649 115.375,-248.864 108.386,-248.466"/>
</g>
<!-- pop -->
<g id="node6" class="node"><title>pop</title>
<ellipse fill="none" stroke="black" cx="200.698" cy="-28.6978" rx="24.8972" ry="24.8972"/>
<text text-anchor="middle" x="200.698" y="-24.9978" font-family="Times,serif" font-size="14.00">pop</text>
</g>
<!-- not_empty&#45;&gt;pop -->
<g id="edge5" class="edge"><title>not_empty&#45;&gt;pop</title>
<path fill="none" stroke="black" d="M147.33,-131.044C161.781,-120.165 176.822,-106.309 186.698,-90.3956 191.67,-82.3841 194.879,-72.7892 196.949,-63.6187"/>
<polygon fill="black" stroke="black" points="200.434,-64.0259 198.836,-53.5522 193.554,-62.7362 200.434,-64.0259"/>
</g>
<!-- peek -->
<g id="node7" class="node"><title>peek</title>
<ellipse fill="none" stroke="black" cx="103.698" cy="-28.6978" rx="27.8951" ry="27.8951"/>
<text text-anchor="middle" x="103.698" y="-24.9978" font-family="Times,serif" font-size="14.00">peek</text>
</g>
<!-- not_empty&#45;&gt;peek -->
<g id="edge6" class="edge"><title>not_empty&#45;&gt;peek</title>
<path fill="none" stroke="black" d="M98.3734,-108.743C97.8197,-94.7651 97.709,-79.7221 98.0877,-66.5495"/>
<polygon fill="black" stroke="black" points="101.589,-66.576 98.4971,-56.4424 94.5951,-66.2925 101.589,-66.576"/>
</g>
<!-- push&#45;&gt;not_empty -->
<g id="edge12" class="edge"><title>push&#45;&gt;not_empty</title>
<path fill="none" stroke="black" d="M100.083,-258.649C99.2284,-246.479 98.8562,-231.529 98.9668,-216.939"/>
<polygon fill="black" stroke="black" points="102.466,-216.987 99.1205,-206.934 95.4672,-216.879 102.466,-216.987"/>
</g>
<!-- push&#45;&gt;push -->
<g id="edge13" class="edge"><title>push&#45;&gt;push</title>
<path fill="none" stroke="black" d="M132.599,-294.726C143,-295.108 151.645,-292.244 151.645,-286.134 151.645,-282.221 148.097,-279.639 142.813,-278.389"/>
<polygon fill="black" stroke="black" points="142.854,-274.88 132.599,-277.543 142.276,-281.857 142.854,-274.88"/>
</g>
<!-- pop&#45;&gt;empty -->
<g id="edge10" class="edge"><title>pop&#45;&gt;empty</title>
<path fill="none" stroke="black" d="M204.044,-53.3626C205.176,-64.5973 205.886,-78.203 204.698,-90.3956 194.874,-191.239 203.219,-222.115 160.698,-314.082 154.378,-327.75 144.817,-341.104 135.43,-352.375"/>
<polygon fill="black" stroke="black" points="132.568,-350.334 128.675,-360.188 137.863,-354.913 132.568,-350.334"/>
<text text-anchor="middle" x="209.198" y="-228.987" font-family="Times,serif" font-size="14.00">empty</text>
</g>
<!-- pop&#45;&gt;not_empty -->
<g id="edge11" class="edge"><title>pop&#45;&gt;not_empty</title>
<path fill="none" stroke="black" d="M179.851,-42.4811C167.778,-50.7028 152.982,-62.2822 142.698,-75.3956 136.447,-83.3655 130.98,-92.5605 126.301,-101.838"/>
<polygon fill="black" stroke="black" points="123.029,-100.568 121.887,-111.102 129.348,-103.58 123.029,-100.568"/>
<text text-anchor="middle" x="162.698" y="-79.1956" font-family="Times,serif" font-size="14.00">!empty</text>
</g>
<!-- peek&#45;&gt;not_empty -->
<g id="edge15" class="edge"><title>peek&#45;&gt;not_empty</title>
<path fill="none" stroke="black" d="M109.727,-56.2851C110.777,-68.538 111.388,-83.6007 111.508,-98.3004"/>
<polygon fill="black" stroke="black" points="108.008,-98.3817 111.513,-108.38 115.008,-98.3785 108.008,-98.3817"/>
</g>
<!-- peek&#45;&gt;peek -->
<g id="edge14" class="edge"><title>peek&#45;&gt;peek</title>
<path fill="none" stroke="black" d="M130.139,-38.761C140.744,-39.3296 149.645,-35.9752 149.645,-28.6978 149.645,-23.9221 145.812,-20.8358 140.179,-19.4389"/>
<polygon fill="black" stroke="black" points="140.387,-15.9445 130.139,-18.6346 139.828,-22.9221 140.387,-15.9445"/>
</g>
</g>
</svg>
