<?xml version="1.0" encoding="UTF-8" standalone="no"?>
<!DOCTYPE svg PUBLIC "-//W3C//DTD SVG 1.1//EN"
 "http://www.w3.org/Graphics/SVG/1.1/DTD/svg11.dtd">
<!-- Generated by graphviz version 2.38.0 (20140413.2041)
 -->
<!-- Title: tree Pages: 1 -->
<svg width="624pt" height="587pt"
 viewBox="0.00 0.00 623.66 586.56" xmlns="http://www.w3.org/2000/svg" xmlns:xlink="http://www.w3.org/1999/xlink">
<g id="graph0" class="graph" transform="scale(1 1) rotate(0) translate(4 582.563)">
<title>tree</title>
<polygon fill="white" stroke="none" points="-4,4 -4,-582.563 619.664,-582.563 619.664,4 -4,4"/>
<!-- init -->
<g id="node1" class="node"><title>init</title>
<ellipse fill="none" stroke="black" cx="429.344" cy="-551.815" rx="22.9609" ry="22.9609"/>
<ellipse fill="none" stroke="black" cx="429.344" cy="-551.815" rx="26.9983" ry="26.9983"/>
<text text-anchor="middle" x="429.344" y="-548.115" font-family="Times,serif" font-size="14.00">init</text>
</g>
<!-- tree_pre_order -->
<g id="node3" class="node"><title>tree_pre_order</title>
<ellipse fill="none" stroke="black" cx="64.3443" cy="-418.873" rx="64.189" ry="64.189"/>
<text text-anchor="middle" x="64.3443" y="-415.173" font-family="Times,serif" font-size="14.00">tree_pre_order</text>
</g>
<!-- init&#45;&gt;tree_pre_order -->
<g id="edge1" class="edge"><title>init&#45;&gt;tree_pre_order</title>
<path fill="none" stroke="black" d="M402.334,-549.948C348.771,-547.222 226.573,-535.92 137.344,-489.067 129.397,-484.894 121.697,-479.606 114.467,-473.821"/>
<polygon fill="black" stroke="black" points="116.719,-471.142 106.816,-467.376 112.21,-476.495 116.719,-471.142"/>
</g>
<!-- tree_in_order -->
<g id="node4" class="node"><title>tree_in_order</title>
<ellipse fill="none" stroke="black" cx="206.344" cy="-418.873" rx="59.5901" ry="59.5901"/>
<text text-anchor="middle" x="206.344" y="-415.173" font-family="Times,serif" font-size="14.00">tree_in_order</text>
</g>
<!-- init&#45;&gt;tree_in_order -->
<g id="edge2" class="edge"><title>init&#45;&gt;tree_in_order</title>
<path fill="none" stroke="black" d="M403.634,-544.141C371.544,-535.039 315.838,-516.645 274.344,-489.067 266.824,-484.069 259.472,-478.13 252.547,-471.863"/>
<polygon fill="black" stroke="black" points="254.894,-469.266 245.212,-464.963 250.098,-474.364 254.894,-469.266"/>
</g>
<!-- tree_post_order -->
<g id="node5" class="node"><title>tree_post_order</title>
<ellipse fill="none" stroke="black" cx="351.344" cy="-418.873" rx="67.6881" ry="67.6881"/>
<text text-anchor="middle" x="351.344" y="-415.173" font-family="Times,serif" font-size="14.00">tree_post_order</text>
</g>
<!-- init&#45;&gt;tree_post_order -->
<g id="edge3" class="edge"><title>init&#45;&gt;tree_post_order</title>
<path fill="none" stroke="black" d="M415.936,-528.305C408.908,-516.508 399.896,-501.379 390.848,-486.189"/>
<polygon fill="black" stroke="black" points="393.656,-484.064 385.531,-477.264 387.642,-487.646 393.656,-484.064"/>
</g>
<!-- tree_level_order -->
<g id="node6" class="node"><title>tree_level_order</title>
<ellipse fill="none" stroke="black" cx="507.344" cy="-418.873" rx="70.3881" ry="70.3881"/>
<text text-anchor="middle" x="507.344" y="-415.173" font-family="Times,serif" font-size="14.00">tree_level_order</text>
</g>
<!-- init&#45;&gt;tree_level_order -->
<g id="edge4" class="edge"><title>init&#45;&gt;tree_level_order</title>
<path fill="none" stroke="black" d="M442.753,-528.305C449.426,-517.103 457.889,-502.896 466.473,-488.486"/>
<polygon fill="black" stroke="black" points="469.708,-489.894 471.818,-479.512 463.694,-486.312 469.708,-489.894"/>
</g>
<!-- mutate -->
<g id="node7" class="node"><title>mutate</title>
<ellipse fill="none" stroke="black" cx="429.344" cy="-129.142" rx="35.9954" ry="35.9954"/>
<text text-anchor="middle" x="429.344" y="-125.442" font-family="Times,serif" font-size="14.00">mutate</text>
</g>
<!-- init&#45;&gt;mutate -->
<g id="edge5" class="edge"><title>init&#45;&gt;mutate</title>
<path fill="none" stroke="black" d="M455.968,-548.358C490.683,-543.617 549.64,-529.733 577.344,-489.067 612.474,-437.502 594.491,-408.671 577.344,-348.679 555.98,-273.934 496.053,-204.022 459.195,-164.243"/>
<polygon fill="black" stroke="black" points="461.532,-161.617 452.15,-156.696 456.416,-166.394 461.532,-161.617"/>
</g>
<!-- free -->
<g id="node2" class="node"><title>free</title>
<ellipse fill="none" stroke="black" cx="429.344" cy="-28.6978" rx="24.8692" ry="24.8692"/>
<ellipse fill="none" stroke="black" cx="429.344" cy="-28.6978" rx="28.897" ry="28.897"/>
<text text-anchor="middle" x="429.344" y="-24.9978" font-family="Times,serif" font-size="14.00">free</text>
</g>
<!-- iterator_free -->
<g id="node8" class="node"><title>iterator_free</title>
<ellipse fill="none" stroke="black" cx="429.344" cy="-256.784" rx="55.7903" ry="55.7903"/>
<text text-anchor="middle" x="429.344" y="-253.084" font-family="Times,serif" font-size="14.00">iterator_free</text>
</g>
<!-- tree_pre_order&#45;&gt;iterator_free -->
<g id="edge6" class="edge"><title>tree_pre_order&#45;&gt;iterator_free</title>
<path fill="none" stroke="black" d="M107.654,-370.804C116.855,-362.608 126.95,-354.773 137.344,-348.679 209.261,-306.522 302.8,-281.886 364.387,-269.136"/>
<polygon fill="black" stroke="black" points="365.26,-272.53 374.367,-267.116 363.871,-265.669 365.26,-272.53"/>
</g>
<!-- tree_in_order&#45;&gt;iterator_free -->
<g id="edge8" class="edge"><title>tree_in_order&#45;&gt;iterator_free</title>
<path fill="none" stroke="black" d="M246.045,-373.94C254.952,-365.114 264.648,-356.239 274.344,-348.679 304.108,-325.473 340.358,-303.9 370.316,-287.599"/>
<polygon fill="black" stroke="black" points="372.249,-290.534 379.397,-282.714 368.932,-284.369 372.249,-290.534"/>
</g>
<!-- tree_post_order&#45;&gt;iterator_free -->
<g id="edge10" class="edge"><title>tree_post_order&#45;&gt;iterator_free</title>
<path fill="none" stroke="black" d="M380.611,-357.806C387.179,-344.326 394.14,-330.038 400.683,-316.609"/>
<polygon fill="black" stroke="black" points="403.902,-317.993 405.136,-307.47 397.609,-314.927 403.902,-317.993"/>
</g>
<!-- tree_level_order&#45;&gt;iterator_free -->
<g id="edge12" class="edge"><title>tree_level_order&#45;&gt;iterator_free</title>
<path fill="none" stroke="black" d="M476.964,-355.52C470.699,-342.663 464.123,-329.164 457.924,-316.443"/>
<polygon fill="black" stroke="black" points="461.015,-314.794 453.488,-307.338 454.722,-317.86 461.015,-314.794"/>
</g>
<!-- mutate&#45;&gt;init -->
<g id="edge15" class="edge"><title>mutate&#45;&gt;init</title>
<path fill="none" stroke="black" d="M458.002,-151.195C499.018,-187.209 571.4,-264.908 595.344,-348.679 612.491,-408.671 630.474,-437.502 595.344,-489.067 567.037,-530.619 506.1,-544.21 466.307,-548.655"/>
<polygon fill="black" stroke="black" points="465.798,-545.188 456.184,-549.641 466.476,-552.155 465.798,-545.188"/>
</g>
<!-- mutate&#45;&gt;free -->
<g id="edge14" class="edge"><title>mutate&#45;&gt;free</title>
<path fill="none" stroke="black" d="M429.344,-93.1574C429.344,-84.9194 429.344,-76.0993 429.344,-67.7342"/>
<polygon fill="black" stroke="black" points="432.844,-67.46 429.344,-57.46 425.844,-67.46 432.844,-67.46"/>
</g>
<!-- iterator_free&#45;&gt;mutate -->
<g id="edge7" class="edge"><title>iterator_free&#45;&gt;mutate</title>
<path fill="none" stroke="black" d="M409.391,-204.318C408.794,-193.02 409.097,-181.215 410.299,-170.431"/>
<polygon fill="black" stroke="black" points="413.775,-170.849 411.728,-160.454 406.846,-169.857 413.775,-170.849"/>
</g>
<!-- iterator_free&#45;&gt;mutate -->
<g id="edge9" class="edge"><title>iterator_free&#45;&gt;mutate</title>
<path fill="none" stroke="black" d="M422.644,-201.041C422.535,-192.203 422.606,-183.148 422.858,-174.591"/>
<polygon fill="black" stroke="black" points="426.361,-174.578 423.255,-164.449 419.366,-174.304 426.361,-174.578"/>
</g>
<!-- iterator_free&#45;&gt;mutate -->
<g id="edge11" class="edge"><title>iterator_free&#45;&gt;mutate</title>
<path fill="none" stroke="black" d="M436.044,-201.041C436.154,-192.203 436.083,-183.148 435.831,-174.591"/>
<polygon fill="black" stroke="black" points="439.322,-174.304 435.434,-164.449 432.328,-174.578 439.322,-174.304"/>
</g>
<!-- iterator_free&#45;&gt;mutate -->
<g id="edge13" class="edge"><title>iterator_free&#45;&gt;mutate</title>
<path fill="none" stroke="black" d="M449.297,-204.318C449.894,-193.02 449.591,-181.215 448.389,-170.431"/>
<polygon fill="black" stroke="black" points="451.843,-169.857 446.961,-160.454 444.913,-170.849 451.843,-169.857"/>
</g>
</g>
</svg>
